<?xml version="1.0" encoding="utf-8"?>
<!-- Generator: Adobe Illustrator 18.1.1, SVG Export Plug-In . SVG Version: 6.00 Build 0)  -->
<svg version="1.1" id="Layer_1" xmlns="http://www.w3.org/2000/svg" xmlns:xlink="http://www.w3.org/1999/xlink" x="0px" y="0px"
	 viewBox="0 0 595.3 841.9" enable-background="new 0 0 595.3 841.9" xml:space="preserve">
<path fill="#D6C41A" stroke="#222221" stroke-miterlimit="10" d="M521.6,450.5l-276.2,0.6l-16.1-55.4l0,0c-3-3.6-7.7-5.4-13.1-5.4
	H96.6c-10.1,0-17.9,8.3-17.9,17.9V732l0,0c-1.8,10.1,5.4,17.9,15.5,17.9h3h81l0,0h81l0,0h263.1l0,0c10.1,0,17.9-8.3,17.9-17.9l0,0
	l19-249.4C559.1,479.1,563.9,448.1,521.6,450.5z"/>
<path fill="#FFF036" stroke="#222221" stroke-miterlimit="10" d="M79.9,546.9l-2.4,188.7v1.7c0,7.4,8.3,13.7,17.9,13.7l0,0h263.1
	l0,0h81l0,0h81h3c10.1,0,16.7-6.3,15.5-13.7l0,0l18.5-237.9c0-7.4-7.7-17.2-17.9-17.2H400.8c-4.8,0-9.5,1.7-13.1,4l0,0l-16.1,41.2
	l-276.2-0.6C77.6,526.3,79.9,545.8,79.9,546.9z"/>
</svg>
